<svg data-v-0dd9719b="" version="1.0" xmlns="http://www.w3.org/2000/svg" xmlns:xlink="http://www.w3.org/1999/xlink" width="100%" height="100%" viewBox="0 0 340.000000 250.000000" preserveAspectRatio="xMidYMid meet" color-interpolation-filters="sRGB" style="margin: auto;"> <rect data-v-0dd9719b="" x="0" y="0" width="100%" height="100%" fill="#fff" fill-opacity="1" class="background"></rect> <rect data-v-0dd9719b="" x="0" y="0" width="100%" height="100%" fill="url(#watermark)" fill-opacity="1" class="watermarklayer"></rect> <g data-v-0dd9719b="" fill="#674ea7" class="icon-text-wrapper icon-svg-group iconsvg" transform="translate(47.290000915527344,94.98348999023438)"><g class="iconsvg-imagesvg" transform="translate(0,0)"><g><rect fill="#674ea7" fill-opacity="0" stroke-width="2" x="0" y="0" width="60" height="60.033018159987996" class="image-rect"></rect> <svg x="0" y="0" width="60" height="60.033018159987996" filtersec="colorsb1647273247" class="image-svg-svg primary" style="overflow: visible;"><svg xmlns="http://www.w3.org/2000/svg" viewBox="0 -0.000057221815950470045 119.93415069580078 120.00004577636719"><defs><clipPath id="abc6873ee-894b-4989-8f83-475b2925b8c1" transform="translate(-.33 -.33)"><path fill="none" d="M0 0h120.59v120.59H0z"></path></clipPath></defs><g><g clip-path="url(#abc6873ee-894b-4989-8f83-475b2925b8c1)"><path d="M100.47 49.6c-14.41 7.97-21.46 38.95-46.8 46.37 0 0 16.09-10.87 15.86-17 0 0-35.23 30.68-67.37-9 0 0 48.26 36.16 84-22.32 2.28-3.73 7-9 16.6-5.58a11.89 11.89 0 0 0 8.08-.52c3.47-1.37 1.54 1.47-10.37 8.05zM59.89 0a59.82 59.82 0 0 0-39 14.39c5.93 13.41 18.9 33.38 44.07 33.28 0 0-34 2.92-49.9-27.49a61.85 61.85 0 0 0-4.52 5.68C17.8 38.54 34.44 57.29 68.37 53c0 0-31.36 17.26-64.15-15.4a57.32 57.32 0 0 0-2.44 7.55c10.25 9.26 36.82 27.91 72.64 13.26 0 0-32 33.93-74.42 4.4A60 60 0 1 0 59.89 0z" fill="#674ea7"></path></g></g></svg></svg> <!----></g></g> <g transform="translate(67,1.2352619171142578)"><g data-gra="path-name" fill-rule="" class="tp-name iconsvg-namesvg" transform="translate(0,0)"><g transform="scale(1)"><g><path d="M20.07-30.29L37.75-31 37.57-27.36 42.75-27.18 43.02-36.54 14.54-36.05 14.8-26.19 20.34-26.46ZM20.29 3.51L24.7-8.05 20.2-9.22 14.04 1.75ZM33.48-8.19L37.93 3.33 44.1 1.57 38.02-9.4ZM28.48-26.28L24.03-28.35 15.21-19.48 21.2-17.41ZM37.57-17.46L43.56-19.53 34.7-28.39 30.24-26.32ZM42.93-16.29L31.81-16.2 31.68-19.71 26.23-19.53 26.23-16.16 14.63-16.06 14.89-10.04 26.28-10.66 26.32 4.05 32.71 3.65 32.04-10.98 43.2-11.56ZM9-25.15L13.46-27.68 7.06-37.44 1.71-34.38ZM9.09-13.9L13.05-17.1 5.13-25.74 0.36-21.78ZM9.54 3.55L11.97-11.83 7.2-12.38 3.19 2.7ZM80.82 3.73L86.44 3.46 86.49-37.8 80.14-37.62ZM68.13 3.69L68.49-37.8 62.91-37.84 61.78 3.6ZM72.63 2.56L77.76 2.25 77.44-36.36 71.37-36.18ZM56.66-22.59L60.21-22.95 60.03-28.48 56.61-28.39 56.61-37.84 50.13-37.62 50.35-28.3 46.13-28.21 46.4-21.51 50.53-21.91 51.03-4.63 46.8-4.23 47.43 2.16 60.7-0.18 60.08-5.4 56.66-5.08ZM133.65-13.63L117.36-13.32 117.09-23.18 132.62-23.8 132.21-30.15 116.95-29.34 116.69-38.2 110.43-37.89 110.47-29.02 99.94-28.48 102.38-36.09 95.44-37.17 92.43-22.14 110.47-22.86 110.47-13.23 91.13-12.87 91.58-5.8 110.52-6.71 110.52 4.41 117.86 4.09 117.54-7.06 134.06-7.83ZM139.86-28.21L135-14.63 139.5-13.23 140.81-16.43 140.72 3.65 146.88 3.42 145.89-29.02 149.04-36.59 142.97-38.2ZM151.56 2.88L177.39 2.43 176.89-11.7 151.83-11.25ZM157.59-6.34L171.18-6.84 171.41-2.11 157.59-1.75ZM177.34-22.54L177.12-27.72 151.25-26.68 151.47-22.05ZM151.43-14.04L177.8-14.89 177.57-19.48 151.11-19.44ZM167.89-34.7L168.03-38.02 160.56-37.57 161.06-34.65 149.58-34.56 149.94-29.02 178.78-30.15 178.56-34.83Z" transform="translate(-0.36000001430511475, 38.20000076293945)"></path></g> <!----> <!----> <!----> <!----> <!----> <!----> <!----></g></g> <g data-gra="path-slogan" fill-rule="" class="tp-slogan iconsvg-slogansvg" fill="#674ea7" transform="translate(5,48.61000061035156)"><rect x="0" height="1" y="3.9750003814697266" width="27.184173583984375"></rect> <rect height="1" y="3.9750003814697266" width="27.184173583984375" x="141.23582458496094"></rect> <g transform="translate(30.184173583984375,0)"><g transform="scale(1)"><path d="M7.17-6.09L7.17-6.09L6.09-6.09Q6-7.73 3.94-7.83L3.94-7.83Q2.02-7.78 2.02-6.33L2.02-6.33Q2.02-5.39 3.05-5.25L3.05-5.25L5.48-4.69Q7.41-4.22 7.41-2.34L7.41-2.34Q7.36 0.05 4.03 0.14L4.03 0.14Q2.20 0.14 1.45-0.61L1.45-0.61Q0.52-1.31 0.56-2.77L0.56-2.77L1.69-2.77Q1.73-0.80 4.03-0.75L4.03-0.75Q6.28-0.80 6.33-2.20L6.33-2.20Q6.52-3.38 4.45-3.75L4.45-3.75L2.67-4.13Q0.84-4.64 0.84-6.19L0.84-6.19Q0.98-8.72 3.84-8.81L3.84-8.81Q7.08-8.81 7.17-6.09ZM10.03-5.06L14.53-5.06L14.53-8.58L15.70-8.58L15.70 0L14.53 0L14.53-3.98L10.03-3.98L10.03 0L8.86 0L8.86-8.58L10.03-8.58L10.03-5.06ZM18.80-1.03L23.95-1.03L23.95 0L17.63 0L17.63-8.58L23.86-8.58L23.86-7.59L18.80-7.59L18.80-4.92L23.48-4.92L23.48-3.89L18.80-3.89L18.80-1.03ZM26.86-8.58L31.17-1.64L31.17-8.58L32.30-8.58L32.30 0L30.98 0L26.63-6.94L26.58-6.94L26.58 0L25.45 0L25.45-8.58L26.86-8.58ZM34.92-1.03L40.22-1.03L40.22 0L33.47 0L33.47-0.94L38.72-7.59L33.84-7.59L33.84-8.58L40.22-8.58L40.22-7.59L34.92-1.03ZM42.52-5.06L47.02-5.06L47.02-8.58L48.19-8.58L48.19 0L47.02 0L47.02-3.98L42.52-3.98L42.52 0L41.34 0L41.34-8.58L42.52-8.58L42.52-5.06ZM51.28-1.03L56.44-1.03L56.44 0L50.11 0L50.11-8.58L56.34-8.58L56.34-7.59L51.28-7.59L51.28-4.92L55.97-4.92L55.97-3.89L51.28-3.89L51.28-1.03ZM59.34-8.58L63.66-1.64L63.66-8.58L64.78-8.58L64.78 0L63.47 0L59.11-6.94L59.06-6.94L59.06 0L57.94 0L57.94-8.58L59.34-8.58ZM71.30-8.58L75.61-1.64L75.61-8.58L76.73-8.58L76.73 0L75.42 0L71.06-6.94L71.02-6.94L71.02 0L69.89 0L69.89-8.58L71.30-8.58ZM78.70-8.58L79.88-8.58L79.88 0L78.70 0L78.70-8.58ZM87.52-3.19L87.52-8.58L88.69-8.58L88.69-3.05Q88.55 0.05 85.17 0.14L85.17 0.14Q82.03 0.05 81.89-2.86L81.89-2.86L81.89-8.58L83.06-8.58L83.06-3.19Q83.11-0.84 85.22-0.80L85.22-0.80Q87.52-0.84 87.52-3.19L87.52-3.19ZM97.22-8.58L94.31-4.41L97.36 0L95.91 0L93.56-3.52L91.22 0L89.81 0L92.91-4.41L90-8.58L91.45-8.58L93.61-5.30L95.81-8.58L97.22-8.58ZM98.63-8.58L99.80-8.58L99.80 0L98.63 0L98.63-8.58ZM103.17-8.58L107.48-1.64L107.48-8.58L108.61-8.58L108.61 0L107.30 0L102.94-6.94L102.89-6.94L102.89 0L101.77 0L101.77-8.58L103.17-8.58Z" transform="translate(-0.5602678571428572, 8.8125)"></path></g></g></g></g></g><defs v-gra="od"></defs></svg>